<mxfile host="app.diagrams.net" modified="2022-09-24T03:26:45.163Z" agent="5.0 (Windows NT 10.0; Win64; x64) AppleWebKit/537.36 (KHTML, like Gecko) Chrome/105.0.0.0 Safari/537.36" etag="IhFFuVDFfOXO8NBzL7rk" version="20.2.2" type="github">
  <diagram id="XWlQeay_2aBtH9ex64kx" name="Page-1">
    <mxGraphModel dx="921" dy="493" grid="0" gridSize="10" guides="1" tooltips="1" connect="1" arrows="1" fold="1" page="1" pageScale="1" pageWidth="827" pageHeight="1169" math="0" shadow="0">
      <root>
        <mxCell id="0" />
        <mxCell id="1" parent="0" />
        <mxCell id="jPVGhE0tIHSrpaLAawch-1" value="" style="rounded=0;whiteSpace=wrap;html=1;" vertex="1" parent="1">
          <mxGeometry x="60" y="140" width="120" height="60" as="geometry" />
        </mxCell>
        <mxCell id="jPVGhE0tIHSrpaLAawch-9" value="" style="ellipse;whiteSpace=wrap;html=1;aspect=fixed;" vertex="1" parent="1">
          <mxGeometry x="271" y="133" width="80" height="80" as="geometry" />
        </mxCell>
        <mxCell id="jPVGhE0tIHSrpaLAawch-10" value="" style="ellipse;whiteSpace=wrap;html=1;aspect=fixed;" vertex="1" parent="1">
          <mxGeometry x="277" y="250" width="80" height="80" as="geometry" />
        </mxCell>
        <mxCell id="jPVGhE0tIHSrpaLAawch-11" value="" style="ellipse;whiteSpace=wrap;html=1;aspect=fixed;" vertex="1" parent="1">
          <mxGeometry x="455" y="133" width="80" height="80" as="geometry" />
        </mxCell>
        <mxCell id="jPVGhE0tIHSrpaLAawch-12" value="" style="ellipse;whiteSpace=wrap;html=1;aspect=fixed;" vertex="1" parent="1">
          <mxGeometry x="461" y="250" width="80" height="80" as="geometry" />
        </mxCell>
        <mxCell id="jPVGhE0tIHSrpaLAawch-13" value="" style="rounded=0;whiteSpace=wrap;html=1;" vertex="1" parent="1">
          <mxGeometry x="60" y="262" width="120" height="60" as="geometry" />
        </mxCell>
        <mxCell id="jPVGhE0tIHSrpaLAawch-14" value="" style="rounded=0;whiteSpace=wrap;html=1;" vertex="1" parent="1">
          <mxGeometry x="644" y="262" width="120" height="60" as="geometry" />
        </mxCell>
        <mxCell id="jPVGhE0tIHSrpaLAawch-15" value="" style="rounded=0;whiteSpace=wrap;html=1;" vertex="1" parent="1">
          <mxGeometry x="644" y="140" width="120" height="60" as="geometry" />
        </mxCell>
      </root>
    </mxGraphModel>
  </diagram>
</mxfile>
